<svg width="42" height="42" viewBox="0 0 42 42" fill="none" xmlns="http://www.w3.org/2000/svg">
<circle cx="21.5" cy="20.1777" r="15.5" fill="white"/>
<path d="M20.8321 41.2146C26.2343 41.2146 31.4152 39.0686 35.2352 35.2486C39.0551 31.4287 41.2012 26.2477 41.2012 20.8455C41.2012 15.4433 39.0551 10.2623 35.2352 6.44235C31.4152 2.6224 26.2343 0.476376 20.8321 0.476376C15.4298 0.476376 10.2489 2.6224 6.42892 6.44235C2.60897 10.2623 0.462948 15.4433 0.462948 20.8455C0.462948 26.2477 2.60897 31.4287 6.42892 35.2486C10.2489 39.0686 15.4298 41.2146 20.8321 41.2146V41.2146ZM11.9206 22.1186C11.5829 22.1186 11.2591 21.9844 11.0204 21.7457C10.7816 21.5069 10.6475 21.1831 10.6475 20.8455C10.6475 20.5078 10.7816 20.184 11.0204 19.9453C11.2591 19.7065 11.5829 19.5724 11.9206 19.5724H26.6704L21.2038 14.1084C21.0854 13.99 20.9915 13.8495 20.9275 13.6949C20.8634 13.5402 20.8305 13.3745 20.8305 13.2071C20.8305 13.0397 20.8634 12.8739 20.9275 12.7193C20.9915 12.5646 21.0854 12.4241 21.2038 12.3057C21.3222 12.1874 21.4627 12.0935 21.6173 12.0294C21.772 11.9654 21.9377 11.9324 22.1051 11.9324C22.2725 11.9324 22.4383 11.9654 22.5929 12.0294C22.7476 12.0935 22.8881 12.1874 23.0065 12.3057L30.6449 19.9442C30.7634 20.0624 30.8575 20.2029 30.9217 20.3576C30.9859 20.5122 31.0189 20.678 31.0189 20.8455C31.0189 21.0129 30.9859 21.1787 30.9217 21.3334C30.8575 21.4881 30.7634 21.6286 30.6449 21.7468L23.0065 29.3852C22.7674 29.6243 22.4432 29.7586 22.1051 29.7586C21.7671 29.7586 21.4428 29.6243 21.2038 29.3852C20.9647 29.1462 20.8305 28.822 20.8305 28.4839C20.8305 28.1458 20.9647 27.8216 21.2038 27.5826L26.6704 22.1186H11.9206Z" fill="#3178C6"/>
</svg>
