<svg width="41" height="42" viewBox="0 0 41 42" fill="none" xmlns="http://www.w3.org/2000/svg">
<circle cx="20.2517" cy="21" r="16" fill="white"/>
<path d="M20.3691 0.513428C14.9669 0.513428 9.78592 2.65945 5.96597 6.4794C2.14603 10.2994 0 15.4803 0 20.8825C0 26.2848 2.14603 31.4657 5.96597 35.2857C9.78592 39.1056 14.9669 41.2517 20.3691 41.2517C25.7713 41.2517 30.9523 39.1056 34.7723 35.2857C38.5922 31.4657 40.7382 26.2848 40.7382 20.8825C40.7382 15.4803 38.5922 10.2994 34.7723 6.4794C30.9523 2.65945 25.7713 0.513428 20.3691 0.513428V0.513428ZM29.2806 19.6095C29.6182 19.6095 29.942 19.7436 30.1808 19.9823C30.4195 20.2211 30.5537 20.5449 30.5537 20.8825C30.5537 21.2202 30.4195 21.544 30.1808 21.7827C29.942 22.0215 29.6182 22.1556 29.2806 22.1556H14.5308L19.9974 27.6196C20.1157 27.738 20.2096 27.8785 20.2737 28.0332C20.3377 28.1878 20.3707 28.3536 20.3707 28.521C20.3707 28.6884 20.3377 28.8541 20.2737 29.0088C20.2096 29.1634 20.1157 29.3039 19.9974 29.4223C19.879 29.5407 19.7385 29.6345 19.5838 29.6986C19.4292 29.7627 19.2634 29.7956 19.096 29.7956C18.9286 29.7956 18.7629 29.7627 18.6082 29.6986C18.4536 29.6345 18.3131 29.5407 18.1947 29.4223L10.5563 21.7839C10.4377 21.6656 10.3437 21.5251 10.2795 21.3705C10.2153 21.2158 10.1823 21.05 10.1823 20.8825C10.1823 20.7151 10.2153 20.5493 10.2795 20.3946C10.3437 20.2399 10.4377 20.0995 10.5563 19.9812L18.1947 12.3428C18.4338 12.1037 18.758 11.9694 19.096 11.9694C19.4341 11.9694 19.7583 12.1037 19.9974 12.3428C20.2364 12.5818 20.3707 12.9061 20.3707 13.2441C20.3707 13.5822 20.2364 13.9064 19.9974 14.1455L14.5308 19.6095H29.2806Z" fill="#3178C6"/>
</svg>
