<svg width="25" height="26" viewBox="0 0 25 26" fill="none" xmlns="http://www.w3.org/2000/svg">
<path fill-rule="evenodd" clip-rule="evenodd" d="M17.274 25.4921V15.9991H20.4608L20.9376 12.3H17.2728V9.9381C17.2728 8.86684 17.5706 8.13633 19.1076 8.13633H21.0663V4.82698C20.1177 4.72603 19.1643 4.67693 18.2104 4.67989C15.3864 4.67989 13.4535 6.40444 13.4535 9.57039V12.3H10.2569V15.9991H13.4523V25.4921H1.80458C1.05691 25.4921 0.451416 24.8866 0.451416 24.1389V2.33148C0.451416 1.58381 1.05691 0.978317 1.80458 0.978317H23.612C24.3597 0.978317 24.9652 1.58381 24.9652 2.33148V24.1389C24.9652 24.8866 24.3597 25.4921 23.612 25.4921H17.274Z" fill="#DBE1EC"/>
</svg>
