<svg width="30" height="30" viewBox="0 0 30 30" fill="none" xmlns="http://www.w3.org/2000/svg">
<path d="M10.3125 28.2656V21.7968L5.48438 25.3593C6.84375 26.625 8.48437 27.6093 10.3125 28.2656Z" fill="#2A5F9E"/>
<path d="M19.6876 28.2656C21.5157 27.6094 23.1563 26.625 24.5157 25.3594L19.6876 21.75V28.2656Z" fill="#2A5F9E"/>
<path d="M1.73425 19.6875C1.87488 20.1563 2.06238 20.5781 2.29675 21.0469L4.12488 19.6875H1.73425Z" fill="#2A5F9E"/>
<path d="M25.8749 19.6875L27.7031 21.0469C27.8906 20.625 28.0781 20.1563 28.2656 19.6875H25.8749Z" fill="#2A5F9E"/>
<path d="M11.0156 17.8125H1.21875C1.35938 18.4688 1.54688 19.0781 1.73438 19.6875H4.125L2.29688 21.0469C2.67188 21.8438 3.09375 22.5469 3.60937 23.25L8.4375 19.6875H10.3125V20.625L4.82812 24.6562L5.48438 25.3125L10.3125 21.7969V28.2656C10.9219 28.5 11.5312 28.6406 12.1875 28.7813V17.8125H11.0156Z" fill="white"/>
<path d="M28.7813 17.8125H17.8125V28.7813C18.4688 28.6406 19.0781 28.4531 19.6875 28.2656V21.7969L24.5156 25.3125C25.1719 24.7031 25.7344 24.0469 26.2969 23.3438L21.2813 19.6875H24.4688L27.3281 21.7969C27.4688 21.5625 27.6094 21.2813 27.7031 21.0469L25.875 19.6875H28.2656C28.4531 19.0781 28.6406 18.4688 28.7813 17.8125Z" fill="white"/>
<path d="M3.60925 23.249C3.98425 23.7646 4.35925 24.2334 4.78113 24.7021L10.3124 20.6709V19.7334H8.43738L3.60925 23.249Z" fill="#ED4C5C"/>
<path d="M21.3281 19.6875L26.3438 23.3437C26.5313 23.1094 26.6719 22.875 26.8594 22.6406C26.9062 22.5937 26.9062 22.5469 26.9531 22.5469C27.0938 22.3125 27.2812 22.0312 27.4219 21.7969L24.4688 19.6875H21.3281Z" fill="#ED4C5C"/>
<path d="M19.6876 1.73434V8.20309L24.5157 4.64059C23.1563 3.37497 21.5157 2.39059 19.6876 1.73434Z" fill="#2A5F9E"/>
<path d="M10.3125 1.73434C8.48437 2.39059 6.84375 3.37497 5.48438 4.64059L10.3125 8.24997V1.73434Z" fill="#2A5F9E"/>
<path d="M28.2656 10.3125C28.1249 9.84375 27.9374 9.42188 27.7031 8.95312L25.8749 10.3125H28.2656Z" fill="#2A5F9E"/>
<path d="M4.12488 10.3125L2.29675 8.95312C2.10925 9.42188 1.92175 9.84375 1.73425 10.3125H4.12488Z" fill="#2A5F9E"/>
<path d="M18.9844 12.1875H28.7344C28.5938 11.5312 28.4063 10.9219 28.2188 10.3125H25.8281L27.6563 8.95312C27.2813 8.15625 26.8594 7.45312 26.3438 6.75L21.5625 10.3125H19.6875V9.375L25.1719 5.34375L24.5156 4.6875L19.6875 8.20312V1.73438C19.0781 1.5 18.4688 1.35938 17.8125 1.21875V12.1875H18.9844Z" fill="white"/>
<path d="M1.21875 12.1875H12.1875V1.21875C11.5312 1.35938 10.9219 1.54688 10.3125 1.73438V8.20312L5.48438 4.6875C4.82812 5.29688 4.26562 5.95312 3.70312 6.65625L8.71875 10.3125H5.53125L2.67187 8.20312C2.53125 8.4375 2.39062 8.71875 2.29688 8.95312L4.125 10.3125H1.73438C1.54688 10.9219 1.35938 11.5312 1.21875 12.1875Z" fill="white"/>
<path d="M26.3906 6.75C26.0156 6.23437 25.6406 5.76562 25.2187 5.29688L19.6874 9.32812V10.2656H21.5624L26.3906 6.75Z" fill="#ED4C5C"/>
<path d="M8.67188 10.3125L3.70313 6.65628C3.51563 6.89066 3.375 7.12503 3.1875 7.35941C3.14063 7.40628 3.14063 7.45316 3.09375 7.45316C2.95313 7.68753 2.76563 7.96878 2.625 8.20316L5.48438 10.3125H8.67188Z" fill="#ED4C5C"/>
<path d="M28.7811 12.1875H17.8124V1.21875C16.9218 1.03125 15.9843 0.9375 14.9999 0.9375C14.0155 0.9375 13.078 1.03125 12.1874 1.21875V12.1875H1.21863C1.03113 13.0781 0.937378 14.0156 0.937378 15C0.937378 15.9844 1.03113 16.9219 1.21863 17.8125H12.1874V28.7812C13.078 28.9688 14.0155 29.0625 14.9999 29.0625C15.9843 29.0625 16.9218 28.9688 17.8124 28.7812V17.8125H28.7811C28.9686 16.9219 29.0624 15.9844 29.0624 15C29.0624 14.0156 28.9686 13.0781 28.7811 12.1875Z" fill="#ED4C5C"/>
</svg>
