<svg width="25" height="25" viewBox="0 0 25 25" fill="none" xmlns="http://www.w3.org/2000/svg">
<path fill-rule="evenodd" clip-rule="evenodd" d="M12.7083 0.701332C5.93637 0.701332 0.451418 6.18628 0.451418 12.9582C0.450028 15.5313 1.25892 18.0394 2.76333 20.1269C4.26774 22.2143 6.39128 23.775 8.83267 24.5875C9.44551 24.6942 9.67472 24.3265 9.67472 24.0041C9.67472 23.7136 9.65878 22.749 9.65878 21.7219C6.57986 22.2894 5.78316 20.9718 5.53802 20.2817C5.39952 19.9287 4.80261 18.8415 4.28169 18.5498C3.8527 18.3206 3.23986 17.7531 4.26576 17.7384C5.2316 17.7225 5.92044 18.627 6.15087 18.9947C7.25398 20.848 9.01652 20.327 9.72007 20.0059C9.82793 19.2092 10.1491 18.6736 10.5021 18.3672C7.7749 18.0607 4.92518 17.003 4.92518 12.3147C4.92518 10.9812 5.39952 9.87928 6.18151 9.02007C6.05894 8.71365 5.62995 7.45732 6.30408 5.772C6.30408 5.772 7.32998 5.45087 9.67472 7.02956C10.6725 6.75263 11.7034 6.61324 12.7389 6.61527C13.7808 6.61527 14.8226 6.75255 15.8032 7.02833C18.1467 5.43494 19.1738 5.77323 19.1738 5.77323C19.8479 7.45855 19.4189 8.71488 19.2964 9.0213C20.0771 9.87928 20.5527 10.9665 20.5527 12.3147C20.5527 17.0189 17.6883 18.0607 14.9611 18.3672C15.4048 18.7496 15.7884 19.485 15.7884 20.6347C15.7884 22.2734 15.7725 23.591 15.7725 24.0053C15.7725 24.3265 16.0029 24.7089 16.6158 24.5863C19.0488 23.7648 21.163 22.2011 22.6608 20.1152C24.1585 18.0293 24.9645 15.5262 24.9652 12.9582C24.9652 6.18628 19.4802 0.701332 12.7083 0.701332Z" fill="#DBE1EC"/>
</svg>
