<svg width="28" height="28" viewBox="0 0 28 28" fill="none" xmlns="http://www.w3.org/2000/svg">
<path fill-rule="evenodd" clip-rule="evenodd" d="M0.225586 2.36695C0.225586 1.76947 0.462936 1.19646 0.88542 0.773973C1.3079 0.351488 1.88092 0.114139 2.4784 0.114139H24.9355C25.2315 0.113655 25.5248 0.171578 25.7985 0.284591C26.0722 0.397604 26.3209 0.563488 26.5304 0.772745C26.7399 0.982002 26.906 1.23052 27.0193 1.50408C27.1326 1.77764 27.1909 2.07086 27.1907 2.36695V24.824C27.191 25.1202 27.133 25.4135 27.0198 25.6872C26.9067 25.9608 26.7407 26.2095 26.5313 26.419C26.322 26.6285 26.0734 26.7946 25.7997 26.9079C25.5261 27.0212 25.2328 27.0794 24.9367 27.0793H2.4784C2.18245 27.0793 1.88941 27.021 1.616 26.9077C1.3426 26.7944 1.0942 26.6283 0.884987 26.419C0.675778 26.2097 0.509862 25.9612 0.39672 25.6877C0.283577 25.4143 0.225425 25.1212 0.225586 24.8252V2.36695ZM10.8989 10.3952H14.5502V12.2288C15.0772 11.1747 16.4255 10.2261 18.4516 10.2261C22.3358 10.2261 23.2563 12.3257 23.2563 16.178V23.314H19.3255V17.0556C19.3255 14.8616 18.7984 13.6237 17.46 13.6237C15.6031 13.6237 14.8309 14.9584 14.8309 17.0556V23.314H10.8989V10.3952ZM4.15759 23.146H8.0896V10.2261H4.15759V23.1448V23.146ZM8.65219 6.01215C8.6596 6.34881 8.5997 6.68356 8.47598 6.99676C8.35227 7.30996 8.16725 7.59529 7.93177 7.83601C7.69629 8.07673 7.4151 8.26799 7.1047 8.39857C6.79431 8.52915 6.46095 8.59641 6.12421 8.59641C5.78746 8.59641 5.45411 8.52915 5.14371 8.39857C4.83332 8.26799 4.55213 8.07673 4.31665 7.83601C4.08117 7.59529 3.89614 7.30996 3.77243 6.99676C3.64872 6.68356 3.58881 6.34881 3.59623 6.01215C3.61078 5.35132 3.88351 4.72247 4.35601 4.26026C4.82852 3.79804 5.46322 3.53922 6.12421 3.53922C6.78519 3.53922 7.4199 3.79804 7.8924 4.26026C8.36491 4.72247 8.63764 5.35132 8.65219 6.01215Z" fill="#DBE1EC"/>
</svg>
