<svg width="400" height="204" viewBox="0 0 400 204" fill="none" xmlns="http://www.w3.org/2000/svg">
<path d="M3.52849 81.1204H14.6045C17.3071 81.1204 19.7081 81.6513 21.8075 82.7131C23.9068 83.7507 25.5357 85.2347 26.6939 87.1652C27.8522 89.0715 28.4313 91.2794 28.4313 93.789C28.4313 96.2986 27.8522 98.5186 26.6939 100.449C25.5357 102.355 23.9068 103.839 21.8075 104.901C19.7081 105.939 17.3071 106.458 14.6045 106.458H3.52849V81.1204ZM14.3873 102.476C16.2454 102.476 17.8742 102.126 19.2738 101.426C20.6975 100.702 21.7833 99.689 22.5314 98.3859C23.3036 97.0587 23.6897 95.5264 23.6897 93.789C23.6897 92.0516 23.3036 90.5314 22.5314 89.2283C21.7833 87.9011 20.6975 86.8877 19.2738 86.1879C17.8742 85.4639 16.2454 85.102 14.3873 85.102H8.23397V102.476H14.3873ZM56.0274 100.594H43.3588L40.8613 106.458H36.011L47.4127 81.1204H52.0458L63.4838 106.458H58.5611L56.0274 100.594ZM54.471 96.9019L49.6931 85.8259L44.9514 96.9019H54.471ZM108.907 81.1204L100.509 106.458H95.5141L89.2522 87.7081L82.8817 106.458H77.8505L69.453 81.1204H74.3395L80.6376 100.377L87.189 81.1204H91.5326L97.9392 100.485L104.418 81.1204H108.907ZM119.255 81.1204H123.961V106.458H119.255V81.1204ZM137.329 81.1204H148.405C151.108 81.1204 153.509 81.6513 155.608 82.7131C157.708 83.7507 159.336 85.2347 160.495 87.1652C161.653 89.0715 162.232 91.2794 162.232 93.789C162.232 96.2986 161.653 98.5186 160.495 100.449C159.336 102.355 157.708 103.839 155.608 104.901C153.509 105.939 151.108 106.458 148.405 106.458H137.329V81.1204ZM148.188 102.476C150.046 102.476 151.675 102.126 153.075 101.426C154.498 100.702 155.584 99.689 156.332 98.3859C157.104 97.0587 157.49 95.5264 157.49 93.789C157.49 92.0516 157.104 90.5314 156.332 89.2283C155.584 87.9011 154.498 86.8877 153.075 86.1879C151.675 85.4639 150.046 85.102 148.188 85.102H142.035V102.476H148.188ZM260.333 81.1204L251.936 106.458H246.941L240.679 87.7081L234.308 106.458H229.277L220.88 81.1204H225.766L232.064 100.377L238.616 81.1204H242.959L249.366 100.485L255.845 81.1204H260.333ZM270.682 81.1204H275.387V106.458H270.682V81.1204ZM292.701 106.82C291.084 106.82 289.588 106.506 288.213 105.878C286.861 105.227 285.751 104.322 284.883 103.164L287.561 99.9423C288.961 101.873 290.638 102.838 292.593 102.838C295.223 102.838 296.538 101.282 296.538 98.1687V85.0658H287.525V81.1204H301.243V97.9154C301.243 100.883 300.519 103.116 299.072 104.612C297.624 106.084 295.5 106.82 292.701 106.82ZM330.262 100.594H317.593L315.095 106.458H310.245L321.647 81.1204H326.28L337.718 106.458H332.795L330.262 100.594ZM328.705 96.9019L323.927 85.8259L319.186 96.9019H328.705ZM351.323 85.102H342.925V81.1204H364.426V85.102H356.028V106.458H351.323V85.102ZM389.633 100.594H376.964L374.467 106.458H369.616L381.018 81.1204H385.651L397.089 106.458H392.167L389.633 100.594ZM388.076 96.9019L383.299 85.8259L378.557 96.9019H388.076Z" fill="#E5E5E5"/>
<mask id="mask0" mask-type="alpha" maskUnits="userSpaceOnUse" x="0" y="-98" width="402" height="400">
<rect y="113" width="402" height="189" fill="#C4C4C4"/>
<rect y="-98" width="402" height="172" fill="#C4C4C4"/>
</mask>
<g mask="url(#mask0)">
<path d="M160.896 104.102C160.896 119.989 158.424 133.846 153.482 145.674C148.539 157.324 141.566 167.033 132.564 174.8C123.561 182.391 112.793 188.128 100.26 192.011C87.7263 195.718 73.9574 197.572 58.9529 197.572C51.5389 197.572 43.3305 197.219 34.3277 196.513C25.5015 195.983 17.4697 194.836 10.2322 193.07V15.1338C17.4697 13.3686 25.5015 12.2212 34.3277 11.6916C43.3305 10.9855 51.5389 10.6325 58.9529 10.6325C73.9574 10.6325 87.7263 12.5742 100.26 16.4578C112.793 20.1648 123.561 25.9018 132.564 33.6689C141.566 41.2594 148.539 50.9683 153.482 62.7954C158.424 74.446 160.896 88.2149 160.896 104.102ZM61.0712 175.065C85.4315 175.065 103.614 168.887 115.617 156.53C127.621 143.997 133.623 126.521 133.623 104.102C133.623 81.6835 127.621 64.2959 115.617 51.9392C103.614 39.4059 85.4315 33.1393 61.0712 33.1393C53.8337 33.1393 48.1849 33.2276 44.1248 33.4041C40.2413 33.5806 37.5052 33.7572 35.9164 33.9337V174.271C37.5052 174.447 40.2413 174.624 44.1248 174.8C48.1849 174.977 53.8337 175.065 61.0712 175.065ZM281.715 71.5334C274.301 95.1876 266.799 117.077 259.208 137.2C251.617 157.324 244.027 176.918 236.436 195.983H210.752C201.396 168.975 193.1 140.466 185.862 110.457C178.801 80.4479 172.182 47.7908 166.003 12.486H193.011C195.483 26.2549 198.042 40.0238 200.69 53.7927C203.338 67.5616 206.074 80.9774 208.899 94.0402C211.723 106.927 214.547 119.283 217.372 131.11C220.196 142.937 223.109 153.882 226.11 163.944C233.171 145.409 240.673 125.109 248.617 103.043C256.56 80.8009 263.974 57.8527 270.859 34.1985H293.101C299.985 57.8527 307.487 80.8009 315.608 103.043C323.728 125.109 331.318 145.409 338.379 163.944C341.204 154.059 344.028 143.202 346.852 131.375C349.677 119.548 352.413 107.191 355.061 94.305C357.885 81.2422 360.621 67.8264 363.269 54.0575C365.917 40.112 368.477 26.2549 370.948 12.486H397.162C390.807 47.7908 384.011 80.4479 376.773 110.457C369.712 140.466 361.592 168.975 352.413 195.983H326.729C318.962 176.918 311.371 157.324 303.957 137.2C296.543 117.077 289.129 95.1876 281.715 71.5334Z" fill="white"/>
</g>
</svg>
