<svg width="36" height="24" viewBox="0 0 36 24" fill="none" xmlns="http://www.w3.org/2000/svg">
<path fill-rule="evenodd" clip-rule="evenodd" d="M1.99996 0C1.64634 0 1.3072 0.140476 1.05715 0.390525C0.807102 0.640573 0.666626 0.979711 0.666626 1.33333C0.666626 1.68696 0.807102 2.02609 1.05715 2.27614C1.3072 2.52619 1.64634 2.66667 1.99996 2.66667H34C34.3536 2.66667 34.6927 2.52619 34.9428 2.27614C35.1928 2.02609 35.3333 1.68696 35.3333 1.33333C35.3333 0.979711 35.1928 0.640573 34.9428 0.390525C34.6927 0.140476 34.3536 0 34 0H1.99996ZM0.666626 12C0.666626 11.6464 0.807102 11.3072 1.05715 11.0572C1.3072 10.8071 1.64634 10.6667 1.99996 10.6667H34C34.3536 10.6667 34.6927 10.8071 34.9428 11.0572C35.1928 11.3072 35.3333 11.6464 35.3333 12C35.3333 12.3536 35.1928 12.6928 34.9428 12.9428C34.6927 13.1929 34.3536 13.3333 34 13.3333H1.99996C1.64634 13.3333 1.3072 13.1929 1.05715 12.9428C0.807102 12.6928 0.666626 12.3536 0.666626 12ZM0.666626 22.6667C0.666626 22.313 0.807102 21.9739 1.05715 21.7239C1.3072 21.4738 1.64634 21.3333 1.99996 21.3333H34C34.3536 21.3333 34.6927 21.4738 34.9428 21.7239C35.1928 21.9739 35.3333 22.313 35.3333 22.6667C35.3333 23.0203 35.1928 23.3594 34.9428 23.6095C34.6927 23.8595 34.3536 24 34 24H1.99996C1.64634 24 1.3072 23.8595 1.05715 23.6095C0.807102 23.3594 0.666626 23.0203 0.666626 22.6667Z" fill="white"/>
</svg>
