<svg width="36" height="34" viewBox="0 0 36 34" fill="none" xmlns="http://www.w3.org/2000/svg">
<path d="M17.9844 0.877443C8.32422 0.873671 0.5 8.42432 0.5 17.7438C0.5 25.1134 5.39453 31.378 12.2109 33.6786C13.1289 33.9012 12.9883 33.2713 12.9883 32.8413V29.9184C7.6875 30.5181 7.47266 27.1312 7.11719 26.5655C6.39844 25.3812 4.69922 25.0795 5.20703 24.5138C6.41406 23.9141 7.64453 24.6646 9.07031 26.6975C10.1016 28.1722 12.1133 27.9232 13.1328 27.6781C13.3555 26.7918 13.832 25.9998 14.4883 25.385C8.99609 24.4346 6.70703 21.1986 6.70703 17.3516C6.70703 15.4847 7.34375 13.7686 8.59375 12.3844C7.79688 10.1027 8.66797 8.14899 8.78516 7.85858C11.0547 7.66246 13.4141 9.42755 13.5977 9.5671C14.8867 9.23143 16.3594 9.05417 18.0078 9.05417C19.6641 9.05417 21.1406 9.23897 22.4414 9.57841C22.8828 9.25406 25.0703 7.7379 27.1797 7.9227C27.293 8.21311 28.1445 10.1215 27.3945 12.3731C28.6602 13.7611 29.3047 15.4922 29.3047 17.3629C29.3047 21.2174 27 24.4572 21.4922 25.3925C21.9639 25.8405 22.3385 26.3747 22.5941 26.964C22.8496 27.5533 22.981 28.1858 22.9805 28.8246V33.0676C23.0117 33.4071 22.9805 33.7427 23.5664 33.7427C30.4844 31.4911 35.4648 25.1813 35.4648 17.7476C35.4648 8.42432 27.6367 0.877443 17.9844 0.877443Z" fill="white"/>
</svg>
