<svg width="34" height="34" viewBox="0 0 34 34" fill="none" xmlns="http://www.w3.org/2000/svg">
<path d="M24.2667 20.3332C24.4 19.2332 24.5 18.1332 24.5 16.9999C24.5 15.8666 24.4 14.7666 24.2667 13.6666H29.9C30.1667 14.7332 30.3334 15.8499 30.3334 16.9999C30.3334 18.1499 30.1667 19.2666 29.9 20.3332H24.2667ZM21.3167 29.5999C22.3167 27.7499 23.0834 25.7499 23.6167 23.6666H28.5334C26.9187 26.447 24.3569 28.5532 21.3167 29.5999V29.5999ZM20.9 20.3332H13.1C12.9334 19.2332 12.8334 18.1332 12.8334 16.9999C12.8334 15.8666 12.9334 14.7499 13.1 13.6666H20.9C21.05 14.7499 21.1667 15.8666 21.1667 16.9999C21.1667 18.1332 21.05 19.2332 20.9 20.3332ZM17 30.2666C15.6167 28.2666 14.5 26.0499 13.8167 23.6666H20.1834C19.5 26.0499 18.3834 28.2666 17 30.2666ZM10.3334 10.3333H5.46671C7.0648 7.54527 9.6247 5.43573 12.6667 4.39992C11.6667 6.24992 10.9167 8.24992 10.3334 10.3333ZM5.46671 23.6666H10.3334C10.9167 25.7499 11.6667 27.7499 12.6667 29.5999C9.63108 28.5527 7.07478 26.4461 5.46671 23.6666V23.6666ZM4.10004 20.3332C3.83337 19.2666 3.66671 18.1499 3.66671 16.9999C3.66671 15.8499 3.83337 14.7332 4.10004 13.6666H9.73337C9.60004 14.7666 9.50004 15.8666 9.50004 16.9999C9.50004 18.1332 9.60004 19.2332 9.73337 20.3332H4.10004ZM17 3.71659C18.3834 5.71658 19.5 7.94992 20.1834 10.3333H13.8167C14.5 7.94992 15.6167 5.71658 17 3.71659V3.71659ZM28.5334 10.3333H23.6167C23.0951 8.26901 22.3227 6.27641 21.3167 4.39992C24.3834 5.44992 26.9334 7.56658 28.5334 10.3333ZM17 0.333252C7.78337 0.333252 0.333374 7.83325 0.333374 16.9999C0.333374 21.4202 2.08932 25.6594 5.21493 28.785C6.76257 30.3327 8.59989 31.5603 10.622 32.3979C12.6441 33.2355 14.8113 33.6666 17 33.6666C21.4203 33.6666 25.6595 31.9106 28.7851 28.785C31.9108 25.6594 33.6667 21.4202 33.6667 16.9999C33.6667 14.8112 33.2356 12.644 32.398 10.6219C31.5605 8.59977 30.3328 6.76245 28.7851 5.2148C27.2375 3.66716 25.4002 2.4395 23.3781 1.60193C21.356 0.764348 19.1887 0.333252 17 0.333252V0.333252Z" fill="white"/>
</svg>
